{
    "asset": {
        "generator": "COLLADA2GLTF",
        "version": "2.0"
    },
    "scenes": [
        {
            "nodes": [
                0
            ]
        }
    ],
    "scene": 0,
    "nodes": [
        {
            "children": [
                1
            ],
            "name": "Y_UP"
        },
        {
            "mesh": 0,
            "name": "06_GLASGOWMAINCOAL_50M_GGERFS_PREDRILL"
        }
    ],
    "meshes": [
        {
            "primitives": [
                {
                    "attributes": {
                        "POSITION": 1
                    },
                    "indices": 0,
                    "mode": 4,
                    "material": 0
                }
            ],
            "name": "06_GLASGOWMAINCOAL_50M_GGERFS_PREDRILL"
        }
    ],
    "accessors": [
        {
            "bufferView": 0,
            "byteOffset": 0,
            "componentType": 5123,
            "count": 219795,
            "max": [
                37591
            ],
            "min": [
                0
            ],
            "type": "SCALAR"
        },
        {
            "bufferView": 1,
            "byteOffset": 0,
            "componentType": 5126,
            "count": 37592,
            "max": [
                265000.0,
                665000.0,
                34.456207275390628
            ],
            "min": [
                259995.0,
                660850.0,
                -177.95928955078126
            ],
            "type": "VEC3"
        }
    ],
    "materials": [
        {
            "pbrMetallicRoughness": {
                "baseColorFactor": [
                    0.4697901904582978,
                    0.9758129119873048,
                    0.6552468538284302,
                    1.0
                ],
                "metallicFactor": 0.0
            },
            "emissiveFactor": [
                0.0,
                0.0,
                0.0
            ],
            "doubleSided": true,
            "name": "effect-00016"
        }
    ],
    "bufferViews": [
        {
            "buffer": 0,
            "byteOffset": 451104,
            "byteLength": 439590,
            "target": 34963
        },
        {
            "buffer": 0,
            "byteOffset": 0,
            "byteLength": 451104,
            "byteStride": 12,
            "target": 34962
        }
    ],
    "buffers": [
        {
            "byteLength": 890694,
            "uri": "data:application/octet-stream;base64,"
        }
    ]
}
