{
    "asset": {
        "generator": "COLLADA2GLTF",
        "version": "2.0"
    },
    "scenes": [
        {
            "nodes": [
                0
            ]
        }
    ],
    "scene": 0,
    "nodes": [
        {
            "children": [
                1
            ],
            "name": "Y_UP"
        },
        {
            "mesh": 0,
            "name": "11_AIRDRIEVIRTUEWELLCOAL_50M_GGERFS_PREDRILL"
        }
    ],
    "meshes": [
        {
            "primitives": [
                {
                    "attributes": {
                        "POSITION": 1
                    },
                    "indices": 0,
                    "mode": 4,
                    "material": 0
                }
            ],
            "name": "11_AIRDRIEVIRTUEWELLCOAL_50M_GGERFS_PREDRILL"
        }
    ],
    "accessors": [
        {
            "bufferView": 0,
            "byteOffset": 0,
            "componentType": 5123,
            "count": 182382,
            "max": [
                31246
            ],
            "min": [
                0
            ],
            "type": "SCALAR"
        },
        {
            "bufferView": 1,
            "byteOffset": 0,
            "componentType": 5126,
            "count": 31247,
            "max": [
                265000.0,
                665000.0,
                26.439468383789064
            ],
            "min": [
                259995.0,
                660850.0,
                -240.31689453125
            ],
            "type": "VEC3"
        }
    ],
    "materials": [
        {
            "pbrMetallicRoughness": {
                "baseColorFactor": [
                    0.8097053170204163,
                    0.37312743067741396,
                    0.17718690633773805,
                    1.0
                ],
                "metallicFactor": 0.0
            },
            "emissiveFactor": [
                0.0,
                0.0,
                0.0
            ],
            "doubleSided": true,
            "name": "effect-00021"
        }
    ],
    "bufferViews": [
        {
            "buffer": 0,
            "byteOffset": 374964,
            "byteLength": 364764,
            "target": 34963
        },
        {
            "buffer": 0,
            "byteOffset": 0,
            "byteLength": 374964,
            "byteStride": 12,
            "target": 34962
        }
    ],
    "buffers": [
        {
            "byteLength": 739728,
            "uri": "data:application/octet-stream;base64,"
        }
    ]
}
