{
    "asset": {
        "generator": "COLLADA2GLTF",
        "version": "2.0"
    },
    "scenes": [
        {
            "nodes": [
                0
            ]
        }
    ],
    "scene": 0,
    "nodes": [
        {
            "children": [
                1
            ],
            "name": "Y_UP"
        },
        {
            "mesh": 0,
            "name": "12_KILTONGUECOAL_50M_GGERFS_PREDRILL"
        }
    ],
    "meshes": [
        {
            "primitives": [
                {
                    "attributes": {
                        "POSITION": 1
                    },
                    "indices": 0,
                    "mode": 4,
                    "material": 0
                }
            ],
            "name": "12_KILTONGUECOAL_50M_GGERFS_PREDRILL"
        }
    ],
    "accessors": [
        {
            "bufferView": 0,
            "byteOffset": 0,
            "componentType": 5123,
            "count": 172983,
            "max": [
                29642
            ],
            "min": [
                0
            ],
            "type": "SCALAR"
        },
        {
            "bufferView": 1,
            "byteOffset": 0,
            "componentType": 5126,
            "count": 29643,
            "max": [
                265000.0,
                665000.0,
                12.513050079345704
            ],
            "min": [
                259995.0,
                660850.0,
                -279.2951965332031
            ],
            "type": "VEC3"
        }
    ],
    "materials": [
        {
            "pbrMetallicRoughness": {
                "baseColorFactor": [
                    0.196915403008461,
                    0.3195512890815735,
                    0.7062126398086548,
                    1.0
                ],
                "metallicFactor": 0.0
            },
            "emissiveFactor": [
                0.0,
                0.0,
                0.0
            ],
            "doubleSided": true,
            "name": "effect-00022"
        }
    ],
    "bufferViews": [
        {
            "buffer": 0,
            "byteOffset": 355716,
            "byteLength": 345966,
            "target": 34963
        },
        {
            "buffer": 0,
            "byteOffset": 0,
            "byteLength": 355716,
            "byteStride": 12,
            "target": 34962
        }
    ],
    "buffers": [
        {
            "byteLength": 701682,
            "uri": "data:application/octet-stream;base64,"
        }
    ]
}
