{
    "asset": {
        "generator": "COLLADA2GLTF",
        "version": "2.0"
    },
    "scenes": [
        {
            "nodes": [
                0
            ]
        }
    ],
    "scene": 0,
    "nodes": [
        {
            "children": [
                1
            ],
            "name": "Y_UP"
        },
        {
            "mesh": 0,
            "name": "13_BASELOWERSCOTTISHCOALMEASURES_50M_GGERFS_PREDRILL"
        }
    ],
    "meshes": [
        {
            "primitives": [
                {
                    "attributes": {
                        "POSITION": 1
                    },
                    "indices": 0,
                    "mode": 4,
                    "material": 0
                }
            ],
            "name": "13_BASELOWERSCOTTISHCOALMEASURES_50M_GGERFS_PREDRILL"
        }
    ],
    "accessors": [
        {
            "bufferView": 0,
            "byteOffset": 0,
            "componentType": 5123,
            "count": 166299,
            "max": [
                28443
            ],
            "min": [
                0
            ],
            "type": "SCALAR"
        },
        {
            "bufferView": 1,
            "byteOffset": 0,
            "componentType": 5126,
            "count": 28444,
            "max": [
                265000.0,
                665000.0,
                -1.062243938446045
            ],
            "min": [
                259995.0,
                660850.0,
                -327.7135925292969
            ],
            "type": "VEC3"
        }
    ],
    "materials": [
        {
            "pbrMetallicRoughness": {
                "baseColorFactor": [
                    0.6495527625083923,
                    0.03737065568566322,
                    0.1079503521323204,
                    1.0
                ],
                "metallicFactor": 0.0
            },
            "emissiveFactor": [
                0.0,
                0.0,
                0.0
            ],
            "doubleSided": true,
            "name": "effect-00023"
        }
    ],
    "bufferViews": [
        {
            "buffer": 0,
            "byteOffset": 341328,
            "byteLength": 332598,
            "target": 34963
        },
        {
            "buffer": 0,
            "byteOffset": 0,
            "byteLength": 341328,
            "byteStride": 12,
            "target": 34962
        }
    ],
    "buffers": [
        {
            "byteLength": 673926,
            "uri": "data:application/octet-stream;base64,"
        }
    ]
}
